<mxfile host="app.diagrams.net" modified="2020-11-28T14:32:42.170Z" agent="5.0 (Windows NT 10.0; Win64; x64) AppleWebKit/537.36 (KHTML, like Gecko) Chrome/83.0.4103.116 Safari/537.36" etag="Qvp0K3KWk1uAsON-tH7-" version="13.10.2" type="github">
  <diagram id="T6LnHzjsu-hLag56DKBj" name="Page-1">
    <mxGraphModel dx="1182" dy="764" grid="1" gridSize="10" guides="1" tooltips="1" connect="1" arrows="1" fold="1" page="1" pageScale="1" pageWidth="827" pageHeight="1169" math="0" shadow="0">
      <root>
        <mxCell id="0" />
        <mxCell id="1" parent="0" />
        <mxCell id="JcggxHbt1tbhgOxpQHLC-1" value="ApplicationStatus Current" style="shape=table;startSize=30;container=1;collapsible=1;childLayout=tableLayout;fixedRows=1;rowLines=0;fontStyle=1;align=center;resizeLast=1;" vertex="1" parent="1">
          <mxGeometry x="280" y="420" width="180" height="150" as="geometry" />
        </mxCell>
        <mxCell id="JcggxHbt1tbhgOxpQHLC-2" value="" style="shape=partialRectangle;collapsible=0;dropTarget=0;pointerEvents=0;fillColor=none;top=0;left=0;bottom=1;right=0;points=[[0,0.5],[1,0.5]];portConstraint=eastwest;" vertex="1" parent="JcggxHbt1tbhgOxpQHLC-1">
          <mxGeometry y="30" width="180" height="20" as="geometry" />
        </mxCell>
        <mxCell id="JcggxHbt1tbhgOxpQHLC-3" value="PK" style="shape=partialRectangle;connectable=0;fillColor=none;top=0;left=0;bottom=0;right=0;fontStyle=1;overflow=hidden;" vertex="1" parent="JcggxHbt1tbhgOxpQHLC-2">
          <mxGeometry width="30" height="20" as="geometry" />
        </mxCell>
        <mxCell id="JcggxHbt1tbhgOxpQHLC-4" value="Id" style="shape=partialRectangle;connectable=0;fillColor=none;top=0;left=0;bottom=0;right=0;align=left;spacingLeft=6;fontStyle=5;overflow=hidden;" vertex="1" parent="JcggxHbt1tbhgOxpQHLC-2">
          <mxGeometry x="30" width="150" height="20" as="geometry" />
        </mxCell>
        <mxCell id="JcggxHbt1tbhgOxpQHLC-5" value="" style="shape=partialRectangle;collapsible=0;dropTarget=0;pointerEvents=0;fillColor=none;top=0;left=0;bottom=0;right=0;points=[[0,0.5],[1,0.5]];portConstraint=eastwest;" vertex="1" parent="JcggxHbt1tbhgOxpQHLC-1">
          <mxGeometry y="50" width="180" height="30" as="geometry" />
        </mxCell>
        <mxCell id="JcggxHbt1tbhgOxpQHLC-6" value="" style="shape=partialRectangle;connectable=0;fillColor=none;top=0;left=0;bottom=0;right=0;editable=1;overflow=hidden;" vertex="1" parent="JcggxHbt1tbhgOxpQHLC-5">
          <mxGeometry width="30" height="30" as="geometry" />
        </mxCell>
        <mxCell id="JcggxHbt1tbhgOxpQHLC-7" value="long ApplicationId" style="shape=partialRectangle;connectable=0;fillColor=none;top=0;left=0;bottom=0;right=0;align=left;spacingLeft=6;overflow=hidden;" vertex="1" parent="JcggxHbt1tbhgOxpQHLC-5">
          <mxGeometry x="30" width="150" height="30" as="geometry" />
        </mxCell>
        <mxCell id="JcggxHbt1tbhgOxpQHLC-8" value="" style="shape=partialRectangle;collapsible=0;dropTarget=0;pointerEvents=0;fillColor=none;top=0;left=0;bottom=0;right=0;points=[[0,0.5],[1,0.5]];portConstraint=eastwest;" vertex="1" parent="JcggxHbt1tbhgOxpQHLC-1">
          <mxGeometry y="80" width="180" height="30" as="geometry" />
        </mxCell>
        <mxCell id="JcggxHbt1tbhgOxpQHLC-9" value="" style="shape=partialRectangle;connectable=0;fillColor=none;top=0;left=0;bottom=0;right=0;editable=1;overflow=hidden;" vertex="1" parent="JcggxHbt1tbhgOxpQHLC-8">
          <mxGeometry width="30" height="30" as="geometry" />
        </mxCell>
        <mxCell id="JcggxHbt1tbhgOxpQHLC-10" value="string status" style="shape=partialRectangle;connectable=0;fillColor=none;top=0;left=0;bottom=0;right=0;align=left;spacingLeft=6;overflow=hidden;" vertex="1" parent="JcggxHbt1tbhgOxpQHLC-8">
          <mxGeometry x="30" width="150" height="30" as="geometry" />
        </mxCell>
        <mxCell id="JcggxHbt1tbhgOxpQHLC-11" value="" style="shape=partialRectangle;collapsible=0;dropTarget=0;pointerEvents=0;fillColor=none;top=0;left=0;bottom=0;right=0;points=[[0,0.5],[1,0.5]];portConstraint=eastwest;" vertex="1" parent="JcggxHbt1tbhgOxpQHLC-1">
          <mxGeometry y="110" width="180" height="30" as="geometry" />
        </mxCell>
        <mxCell id="JcggxHbt1tbhgOxpQHLC-12" value="" style="shape=partialRectangle;connectable=0;fillColor=none;top=0;left=0;bottom=0;right=0;editable=1;overflow=hidden;" vertex="1" parent="JcggxHbt1tbhgOxpQHLC-11">
          <mxGeometry width="30" height="30" as="geometry" />
        </mxCell>
        <mxCell id="JcggxHbt1tbhgOxpQHLC-13" value="" style="shape=partialRectangle;connectable=0;fillColor=none;top=0;left=0;bottom=0;right=0;align=left;spacingLeft=6;overflow=hidden;" vertex="1" parent="JcggxHbt1tbhgOxpQHLC-11">
          <mxGeometry x="30" width="150" height="30" as="geometry" />
        </mxCell>
        <mxCell id="JcggxHbt1tbhgOxpQHLC-29" style="edgeStyle=orthogonalEdgeStyle;rounded=0;orthogonalLoop=1;jettySize=auto;html=1;exitX=0.55;exitY=0.95;exitDx=0;exitDy=0;exitPerimeter=0;" edge="1" parent="1" source="JcggxHbt1tbhgOxpQHLC-27" target="JcggxHbt1tbhgOxpQHLC-28">
          <mxGeometry relative="1" as="geometry" />
        </mxCell>
        <mxCell id="JcggxHbt1tbhgOxpQHLC-27" value="Application" style="ellipse;shape=cloud;whiteSpace=wrap;html=1;align=center;" vertex="1" parent="1">
          <mxGeometry x="170" y="120" width="100" height="60" as="geometry" />
        </mxCell>
        <mxCell id="JcggxHbt1tbhgOxpQHLC-43" style="edgeStyle=orthogonalEdgeStyle;rounded=0;orthogonalLoop=1;jettySize=auto;html=1;exitX=0.5;exitY=1;exitDx=0;exitDy=0;entryX=0.25;entryY=0;entryDx=0;entryDy=0;" edge="1" parent="1" source="JcggxHbt1tbhgOxpQHLC-28" target="JcggxHbt1tbhgOxpQHLC-30">
          <mxGeometry relative="1" as="geometry" />
        </mxCell>
        <mxCell id="JcggxHbt1tbhgOxpQHLC-44" style="edgeStyle=orthogonalEdgeStyle;rounded=0;orthogonalLoop=1;jettySize=auto;html=1;exitX=1;exitY=0.5;exitDx=0;exitDy=0;entryX=0.45;entryY=0;entryDx=0;entryDy=0;entryPerimeter=0;" edge="1" parent="1" source="JcggxHbt1tbhgOxpQHLC-28" target="JcggxHbt1tbhgOxpQHLC-1">
          <mxGeometry relative="1" as="geometry" />
        </mxCell>
        <mxCell id="JcggxHbt1tbhgOxpQHLC-28" value="Application" style="whiteSpace=wrap;html=1;align=center;" vertex="1" parent="1">
          <mxGeometry x="105" y="260" width="100" height="40" as="geometry" />
        </mxCell>
        <mxCell id="JcggxHbt1tbhgOxpQHLC-30" value="Application" style="shape=table;startSize=30;container=1;collapsible=1;childLayout=tableLayout;fixedRows=1;rowLines=0;fontStyle=1;align=center;resizeLast=1;" vertex="1" parent="1">
          <mxGeometry x="40" y="420" width="180" height="150" as="geometry" />
        </mxCell>
        <mxCell id="JcggxHbt1tbhgOxpQHLC-31" value="" style="shape=partialRectangle;collapsible=0;dropTarget=0;pointerEvents=0;fillColor=none;top=0;left=0;bottom=1;right=0;points=[[0,0.5],[1,0.5]];portConstraint=eastwest;" vertex="1" parent="JcggxHbt1tbhgOxpQHLC-30">
          <mxGeometry y="30" width="180" height="20" as="geometry" />
        </mxCell>
        <mxCell id="JcggxHbt1tbhgOxpQHLC-32" value="PK" style="shape=partialRectangle;connectable=0;fillColor=none;top=0;left=0;bottom=0;right=0;fontStyle=1;overflow=hidden;" vertex="1" parent="JcggxHbt1tbhgOxpQHLC-31">
          <mxGeometry width="30" height="20" as="geometry" />
        </mxCell>
        <mxCell id="JcggxHbt1tbhgOxpQHLC-33" value="Id" style="shape=partialRectangle;connectable=0;fillColor=none;top=0;left=0;bottom=0;right=0;align=left;spacingLeft=6;fontStyle=5;overflow=hidden;" vertex="1" parent="JcggxHbt1tbhgOxpQHLC-31">
          <mxGeometry x="30" width="150" height="20" as="geometry" />
        </mxCell>
        <mxCell id="JcggxHbt1tbhgOxpQHLC-34" value="" style="shape=partialRectangle;collapsible=0;dropTarget=0;pointerEvents=0;fillColor=none;top=0;left=0;bottom=0;right=0;points=[[0,0.5],[1,0.5]];portConstraint=eastwest;" vertex="1" parent="JcggxHbt1tbhgOxpQHLC-30">
          <mxGeometry y="50" width="180" height="30" as="geometry" />
        </mxCell>
        <mxCell id="JcggxHbt1tbhgOxpQHLC-35" value="" style="shape=partialRectangle;connectable=0;fillColor=none;top=0;left=0;bottom=0;right=0;editable=1;overflow=hidden;" vertex="1" parent="JcggxHbt1tbhgOxpQHLC-34">
          <mxGeometry width="30" height="30" as="geometry" />
        </mxCell>
        <mxCell id="JcggxHbt1tbhgOxpQHLC-36" value="" style="shape=partialRectangle;connectable=0;fillColor=none;top=0;left=0;bottom=0;right=0;align=left;spacingLeft=6;overflow=hidden;" vertex="1" parent="JcggxHbt1tbhgOxpQHLC-34">
          <mxGeometry x="30" width="150" height="30" as="geometry" />
        </mxCell>
        <mxCell id="JcggxHbt1tbhgOxpQHLC-37" value="" style="shape=partialRectangle;collapsible=0;dropTarget=0;pointerEvents=0;fillColor=none;top=0;left=0;bottom=0;right=0;points=[[0,0.5],[1,0.5]];portConstraint=eastwest;" vertex="1" parent="JcggxHbt1tbhgOxpQHLC-30">
          <mxGeometry y="80" width="180" height="30" as="geometry" />
        </mxCell>
        <mxCell id="JcggxHbt1tbhgOxpQHLC-38" value="" style="shape=partialRectangle;connectable=0;fillColor=none;top=0;left=0;bottom=0;right=0;editable=1;overflow=hidden;" vertex="1" parent="JcggxHbt1tbhgOxpQHLC-37">
          <mxGeometry width="30" height="30" as="geometry" />
        </mxCell>
        <mxCell id="JcggxHbt1tbhgOxpQHLC-39" value="" style="shape=partialRectangle;connectable=0;fillColor=none;top=0;left=0;bottom=0;right=0;align=left;spacingLeft=6;overflow=hidden;" vertex="1" parent="JcggxHbt1tbhgOxpQHLC-37">
          <mxGeometry x="30" width="150" height="30" as="geometry" />
        </mxCell>
        <mxCell id="JcggxHbt1tbhgOxpQHLC-40" value="" style="shape=partialRectangle;collapsible=0;dropTarget=0;pointerEvents=0;fillColor=none;top=0;left=0;bottom=0;right=0;points=[[0,0.5],[1,0.5]];portConstraint=eastwest;" vertex="1" parent="JcggxHbt1tbhgOxpQHLC-30">
          <mxGeometry y="110" width="180" height="30" as="geometry" />
        </mxCell>
        <mxCell id="JcggxHbt1tbhgOxpQHLC-41" value="" style="shape=partialRectangle;connectable=0;fillColor=none;top=0;left=0;bottom=0;right=0;editable=1;overflow=hidden;" vertex="1" parent="JcggxHbt1tbhgOxpQHLC-40">
          <mxGeometry width="30" height="30" as="geometry" />
        </mxCell>
        <mxCell id="JcggxHbt1tbhgOxpQHLC-42" value="" style="shape=partialRectangle;connectable=0;fillColor=none;top=0;left=0;bottom=0;right=0;align=left;spacingLeft=6;overflow=hidden;" vertex="1" parent="JcggxHbt1tbhgOxpQHLC-40">
          <mxGeometry x="30" width="150" height="30" as="geometry" />
        </mxCell>
      </root>
    </mxGraphModel>
  </diagram>
</mxfile>
